<mxfile host="app.diagrams.net" modified="2023-09-14T05:41:05.125Z" agent="Mozilla/5.0 (Windows NT 10.0; Win64; x64) AppleWebKit/537.36 (KHTML, like Gecko) Chrome/116.0.0.0 Safari/537.36" etag="KTuNTUDsq8d8Nmy2B1Hh" version="21.3.4" type="github">
  <diagram name="Page-1" id="Hv2ICjxILQZvLtY6XOdn">
    <mxGraphModel dx="1050" dy="640" grid="1" gridSize="10" guides="1" tooltips="1" connect="1" arrows="1" fold="1" page="1" pageScale="1" pageWidth="850" pageHeight="1100" math="0" shadow="0">
      <root>
        <mxCell id="0" />
        <mxCell id="1" parent="0" />
        <mxCell id="AdF-zrSTDMnADdUjKxxo-1" value="Middleware&lt;br&gt;&lt;br&gt;Get path from request url&lt;br&gt;&lt;br&gt;Call to GraphQL edge to retrieve the item fields" style="rounded=0;whiteSpace=wrap;html=1;" vertex="1" parent="1">
          <mxGeometry x="220" y="35" width="120" height="190" as="geometry" />
        </mxCell>
        <mxCell id="AdF-zrSTDMnADdUjKxxo-2" value="Actor" style="shape=umlActor;verticalLabelPosition=bottom;verticalAlign=top;html=1;outlineConnect=0;" vertex="1" parent="1">
          <mxGeometry x="40" y="100" width="30" height="60" as="geometry" />
        </mxCell>
        <mxCell id="AdF-zrSTDMnADdUjKxxo-3" value="" style="endArrow=classic;html=1;rounded=0;entryX=0;entryY=0.5;entryDx=0;entryDy=0;" edge="1" parent="1" source="AdF-zrSTDMnADdUjKxxo-2" target="AdF-zrSTDMnADdUjKxxo-1">
          <mxGeometry width="50" height="50" relative="1" as="geometry">
            <mxPoint x="160" y="170" as="sourcePoint" />
            <mxPoint x="210" y="120" as="targetPoint" />
          </mxGeometry>
        </mxCell>
        <mxCell id="AdF-zrSTDMnADdUjKxxo-4" value="Request" style="edgeLabel;html=1;align=center;verticalAlign=middle;resizable=0;points=[];" vertex="1" connectable="0" parent="AdF-zrSTDMnADdUjKxxo-3">
          <mxGeometry x="-0.5227" relative="1" as="geometry">
            <mxPoint x="34" as="offset" />
          </mxGeometry>
        </mxCell>
        <mxCell id="AdF-zrSTDMnADdUjKxxo-5" value="getStaticPaths&lt;br&gt;&lt;br&gt;get all pages&lt;br&gt;&lt;br&gt;if page has personalization new path is added with variant postfix like (blog/12345_v0011) where each postfix number represents component personalization variation index" style="rounded=0;whiteSpace=wrap;html=1;" vertex="1" parent="1">
          <mxGeometry x="220" y="280" width="120" height="220" as="geometry" />
        </mxCell>
        <mxCell id="AdF-zrSTDMnADdUjKxxo-9" style="edgeStyle=orthogonalEdgeStyle;rounded=0;orthogonalLoop=1;jettySize=auto;html=1;exitX=0.5;exitY=1;exitDx=0;exitDy=0;" edge="1" parent="1" source="AdF-zrSTDMnADdUjKxxo-6">
          <mxGeometry relative="1" as="geometry">
            <mxPoint x="65" y="430" as="targetPoint" />
          </mxGeometry>
        </mxCell>
        <mxCell id="AdF-zrSTDMnADdUjKxxo-6" value="Site Build" style="rounded=1;whiteSpace=wrap;html=1;" vertex="1" parent="1">
          <mxGeometry x="30" y="370" width="70" height="40" as="geometry" />
        </mxCell>
        <mxCell id="AdF-zrSTDMnADdUjKxxo-7" value="" style="endArrow=classic;html=1;rounded=0;exitX=1;exitY=0.5;exitDx=0;exitDy=0;entryX=0;entryY=0.5;entryDx=0;entryDy=0;" edge="1" parent="1" source="AdF-zrSTDMnADdUjKxxo-6" target="AdF-zrSTDMnADdUjKxxo-5">
          <mxGeometry width="50" height="50" relative="1" as="geometry">
            <mxPoint x="400" y="360" as="sourcePoint" />
            <mxPoint x="180" y="310" as="targetPoint" />
          </mxGeometry>
        </mxCell>
        <mxCell id="AdF-zrSTDMnADdUjKxxo-10" value="getStaticProps&lt;br&gt;&lt;br&gt;if its a path with variation - extract the rule variation data and evaluate the rule outcome based on that" style="whiteSpace=wrap;html=1;aspect=fixed;" vertex="1" parent="1">
          <mxGeometry x="410" y="321.5" width="137" height="137" as="geometry" />
        </mxCell>
        <mxCell id="AdF-zrSTDMnADdUjKxxo-11" value="rewritePath&lt;br&gt;&lt;br&gt;remove the variation path from url" style="whiteSpace=wrap;html=1;aspect=fixed;" vertex="1" parent="1">
          <mxGeometry x="600" y="330.75" width="118.5" height="118.5" as="geometry" />
        </mxCell>
        <mxCell id="AdF-zrSTDMnADdUjKxxo-12" value="" style="endArrow=classic;html=1;rounded=0;exitX=1;exitY=0.5;exitDx=0;exitDy=0;entryX=0;entryY=0.5;entryDx=0;entryDy=0;" edge="1" parent="1" source="AdF-zrSTDMnADdUjKxxo-5" target="AdF-zrSTDMnADdUjKxxo-10">
          <mxGeometry width="50" height="50" relative="1" as="geometry">
            <mxPoint x="400" y="360" as="sourcePoint" />
            <mxPoint x="450" y="310" as="targetPoint" />
          </mxGeometry>
        </mxCell>
        <mxCell id="AdF-zrSTDMnADdUjKxxo-13" value="" style="endArrow=classic;html=1;rounded=0;exitX=1;exitY=0.5;exitDx=0;exitDy=0;entryX=0;entryY=0.5;entryDx=0;entryDy=0;" edge="1" parent="1" source="AdF-zrSTDMnADdUjKxxo-10" target="AdF-zrSTDMnADdUjKxxo-11">
          <mxGeometry width="50" height="50" relative="1" as="geometry">
            <mxPoint x="400" y="360" as="sourcePoint" />
            <mxPoint x="450" y="310" as="targetPoint" />
          </mxGeometry>
        </mxCell>
        <mxCell id="AdF-zrSTDMnADdUjKxxo-14" value="If item field has personalization - evaluate the rule based on the item fields&lt;br&gt;&lt;br&gt;Calculate which personalization rules apply to generate the variation postfix&amp;nbsp;" style="rounded=0;whiteSpace=wrap;html=1;" vertex="1" parent="1">
          <mxGeometry x="380" y="50" width="130" height="160" as="geometry" />
        </mxCell>
        <mxCell id="AdF-zrSTDMnADdUjKxxo-15" value="Rewrite the path to return a variation with a postfix" style="rounded=0;whiteSpace=wrap;html=1;" vertex="1" parent="1">
          <mxGeometry x="550" y="100" width="120" height="60" as="geometry" />
        </mxCell>
        <mxCell id="AdF-zrSTDMnADdUjKxxo-16" value="" style="endArrow=classic;html=1;rounded=0;exitX=1;exitY=0.5;exitDx=0;exitDy=0;" edge="1" parent="1" source="AdF-zrSTDMnADdUjKxxo-1" target="AdF-zrSTDMnADdUjKxxo-14">
          <mxGeometry width="50" height="50" relative="1" as="geometry">
            <mxPoint x="490" y="290" as="sourcePoint" />
            <mxPoint x="540" y="240" as="targetPoint" />
          </mxGeometry>
        </mxCell>
        <mxCell id="AdF-zrSTDMnADdUjKxxo-17" value="" style="endArrow=classic;html=1;rounded=0;exitX=1;exitY=0.5;exitDx=0;exitDy=0;entryX=0;entryY=0.5;entryDx=0;entryDy=0;" edge="1" parent="1" source="AdF-zrSTDMnADdUjKxxo-14" target="AdF-zrSTDMnADdUjKxxo-15">
          <mxGeometry width="50" height="50" relative="1" as="geometry">
            <mxPoint x="520" y="290" as="sourcePoint" />
            <mxPoint x="540" y="130" as="targetPoint" />
          </mxGeometry>
        </mxCell>
      </root>
    </mxGraphModel>
  </diagram>
</mxfile>
